:SAMPLES-PER-SECOND 30
:FULLY-SPECIFIED
:DEGREES
578
root  -6.25413 39.0983 -1.46424 4.58477 -40.1143 -5.86011
RightUpLeg  -9.07475 4.2101 12.3235
RightLeg  12.8113 12.8263 2.73631
RightFoot  -6.71515 0.236022 -3.86478
RightToes  1.74624e-010 -3.18055e-015 -2.98177e-016
Spine  -3.35385 -4.01444 4.57367
Spine1  10.6429 -4.64567 4.55479
HEad  -12.2706 20.2474 0.121031
LeftShoulder1  -3.88251e-019 9.70628e-020 -3.87848e-018
LeftArm  -11.7983 28.8295 -64.7905
LeftForeArm  47.4865 -1.86747 -6.72859
LeftHand  -0.00080128 -6.57995 0.324508
RightShoulder  6.03775 9.94819 28.9341
RightArm  -1.24701 -21.4596 18.0316
RightForeArm  55.6715 -5.20233 -4.85961
RightHand  0.262281 11.5218 1.39529
LeftUpLeg  -6.42675 11.8942 11.8137
LeftLeg  33.6456 21.0459 24.1746
LeftFoot  5.19566 3.21589 -19.6911
LeftToes  7.37594e-011 2.64622e-011 -6.25182e-011
579
root  -6.08559 39.0433 -1.67644 3.20105 -37.8494 -5.30007
RightUpLeg  -9.05718 3.71987 11.9324
RightLeg  13.6565 11.0454 2.20335
RightFoot  -6.9774 0.236007 -4.01011
RightToes  1.74624e-010 -3.18055e-015 -2.98177e-016
Spine  -1.62564 -3.54137 5.28061
Spine1  12.6792 -3.97132 4.0473
HEad  -18.7042 19.03 0.619449
LeftShoulder1  -3.88251e-019 9.70628e-020 -3.87848e-018
LeftArm  -14.2887 26.9581 -72.8505
LeftForeArm  51.7653 -2.84895 -7.40679
LeftHand  -0.238992 -6.9092 2.62209
RightShoulder  7.20417 10.6519 33.625
RightArm  -1.57344 -20.076 21.3443
RightForeArm  57.5921 -4.9498 -4.88537
RightHand  -0.832693 8.81535 -7.02152
LeftUpLeg  -7.87284 9.24732 11.2427
LeftLeg  35.7173 20.9505 25.8399
LeftFoot  5.79225 3.14035 -18.6163
LeftToes  7.37594e-011 2.64622e-011 -6.25182e-011
580
root  -5.91047 38.9787 -1.89892 2.30938 -35.7489 -4.81355
RightUpLeg  -9.47639 3.18427 11.4689
RightLeg  14.4835 9.47923 1.79899
RightFoot  -7.14721 0.23773 -4.14127
RightToes  1.74624e-010 -3.18055e-015 -2.98177e-016
Spine  0.284559 -2.86171 5.75269
Spine1  13.575 -3.28415 4.4634
HEad  -24.8118 17.2777 0.10726
LeftShoulder1  -3.88251e-019 9.70628e-020 -3.87848e-018
LeftArm  -16.2881 26.2815 -79.894
LeftForeArm  48.641 -6.08467 -7.84452
LeftHand  -0.211381 -8.56239 2.13692
RightShoulder  8.07454 10.9803 37.2517
RightArm  -2.40323 -18.9737 24.7938
RightForeArm  47.0427 -4.67018 -4.01901
RightHand  -1.39545 6.00631 -14.0364
LeftUpLeg  -9.6024 7.1508 10.5777
LeftLeg  37.411 20.3479 26.945
LeftFoot  5.89222 2.81658 -16.6217
LeftToes  7.37594e-011 2.64622e-011 -6.25182e-011
581
root  -5.7585 38.933 -2.09213 2.08422 -33.5713 -4.66404
RightUpLeg  -9.92798 2.70441 11.1305
RightLeg  14.6228 7.75771 1.58936
RightFoot  -7.14409 0.216399 -3.74109
RightToes  1.74624e-010 -3.18055e-015 -2.98177e-016
Spine  1.85768 -2.40019 7.07134
Spine1  13.5198 -2.64759 4.09377
HEad  -29.1829 15.3609 -0.689064
LeftShoulder1  -3.88251e-019 9.70628e-020 -3.87848e-018
LeftArm  -15.5594 26.0512 -85.2818
LeftForeArm  46.4905 -10.7401 -8.44282
LeftHand  -0.105799 -10.0188 1.12626
RightShoulder  8.26887 11.0333 38.0657
RightArm  -4.27935 -19.6946 30.7989
RightForeArm  35.7083 -2.77622 -4.13813
RightHand  -1.55188 4.98357 -17.175
LeftUpLeg  -11.559 5.7629 10.115
LeftLeg  38.7221 20.1769 27.999
LeftFoot  5.77158 2.32668 -13.8408
LeftToes  7.37594e-011 2.64622e-011 -6.25182e-011
582
root  -5.63967 38.9257 -2.25465 2.27982 -31.1302 -4.65215
RightUpLeg  -10.2374 2.34121 10.841
RightLeg  13.9476 5.7027 1.45433
RightFoot  -6.97505 0.158743 -2.59826
RightToes  1.74624e-010 -3.18055e-015 -2.98177e-016
Spine  2.82346 -2.20168 9.08567
Spine1  13.0712 -2.01681 2.57716
HEad  -31.1739 13.8956 -0.340641
LeftShoulder1  -3.88251e-019 9.70628e-020 -3.87848e-018
LeftArm  -9.90547 25.3487 -89.1329
LeftForeArm  45.7305 -14.7528 -9.13943
LeftHand  -0.398989 -10.6723 3.25906
RightShoulder  8.09079 10.9983 37.28
RightArm  -5.21096 -20.8449 38.1039
RightForeArm  28.1418 0.812674 -4.05594
RightHand  -1.30756 3.34755 -17.0994
LeftUpLeg  -13.5854 5.22077 9.82869
LeftLeg  39.4262 20.3008 28.708
LeftFoot  5.61776 1.93337 -11.5968
LeftToes  7.37594e-011 2.64622e-011 -6.25182e-011
583
root  -5.54638 38.9402 -2.42212 2.47497 -28.5521 -4.32379
RightUpLeg  -10.657 2.03212 10.3462
RightLeg  13.1479 3.54964 1.1918
RightFoot  -6.75483 0.0963388 -1.41653
RightToes  1.74624e-010 -3.18055e-015 -2.98177e-016
Spine  3.3882 -1.92236 10.6047
Spine1  12.5781 -1.35708 1.1283
HEad  -31.2529 13.0055 1.23992
LeftShoulder1  -3.88251e-019 9.70628e-020 -3.87848e-018
LeftArm  3.18593 23.9827 -92.1416
LeftForeArm  39.1854 -18.5342 -8.48997
LeftHand  -0.946232 -10.7616 7.27908
RightShoulder  7.93884 10.9805 36.5782
RightArm  -3.22181 -20.4852 44.026
RightForeArm  22.6932 5.09403 -2.10041
RightHand  -1.0829 2.30153 -16.1021
LeftUpLeg  -15.4102 5.48319 9.40202
LeftLeg  38.8713 18.4782 27.0449
LeftFoot  4.76875 1.76236 -11.1033
LeftToes  7.37594e-011 2.64622e-011 -6.25182e-011
584
root  -5.47008 38.951 -2.61325 2.49526 -25.9973 -3.66067
RightUpLeg  -11.3447 1.65835 9.62529
RightLeg  12.8822 1.53058 0.767538
RightFoot  -6.58716 0.073544 -0.998511
RightToes  1.74624e-010 -3.18055e-015 -2.98177e-016
Spine  3.93411 -1.41401 11.1964
Spine1  12.0846 -0.691249 0.490798
HEad  -30.5926 12.1178 2.90073
LeftShoulder1  -3.88251e-019 9.70628e-020 -3.87848e-018
LeftArm  21.6906 22.5944 -94.4671
LeftForeArm  25.4842 -22.8415 -4.83677
LeftHand  -1.24176 -10.8009 9.41752
RightShoulder  7.81981 10.9734 36.0091
RightArm  1.90346 -18.7024 48.1804
RightForeArm  18.8107 10.3709 0.266096
RightHand  -1.14316 2.96679 -15.6666
LeftUpLeg  -16.8357 5.93198 8.74836
LeftLeg  37.0206 13.5371 22.2521
LeftFoot  2.81579 1.64687 -11.6882
LeftToes  7.37594e-011 2.64622e-011 -6.25182e-011
585
root  -5.40905 38.957 -2.80245 2.32766 -23.3269 -3.03302
RightUpLeg  -11.9219 1.19295 8.8965
RightLeg  12.983 -0.486436 0.310709
RightFoot  -6.41325 0.088137 -1.22908
RightToes  1.74624e-010 -3.18055e-015 -2.98177e-016
Spine  4.6654 -0.909883 11.5171
Spine1  11.5204 -0.1145 0.186366
HEad  -30.0962 10.8618 3.88472
LeftShoulder1  -3.88251e-019 9.70628e-020 -3.87848e-018
LeftArm  40.98 21.8321 -95.7156
LeftForeArm  8.88569 -26.9725 2.16245
LeftHand  -1.19102 -10.9672 8.94949
RightShoulder  7.62035 10.9424 35.0907
RightArm  14.1277 -16.7432 51.79
RightForeArm  10.616 16.4654 -1.48084
RightHand  -1.38728 4.37272 -16.2966
LeftUpLeg  -17.7825 5.62712 8.13811
LeftLeg  34.6414 8.19589 17.0017
LeftFoot  0.567887 1.40865 -11.6915
LeftToes  7.37594e-011 2.64622e-011 -6.25182e-011
586
root  -5.37399 38.9896 -2.95859 2.04839 -20.2903 -2.58197
RightUpLeg  -11.9749 0.78118 8.26232
RightLeg  12.7157 -2.86279 -0.0960712
RightFoot  -6.0099 0.112492 -1.56982
RightToes  1.74624e-010 -3.18055e-015 -2.98177e-016
Spine  5.34606 -0.597625 11.8782
Spine1  10.9502 0.265344 -0.235794
HEad  -29.7279 9.62776 4.394
LeftShoulder1  -3.88251e-019 9.70628e-020 -3.87848e-018
LeftArm  49.7307 21.5936 -95.5141
LeftForeArm  1.31684 -30.4125 6.98832
LeftHand  -1.031 -10.9017 7.82609
RightShoulder  7.42717 10.9099 34.1987
RightArm  32.1862 -15.2178 54.7534
RightForeArm  -4.20568 21.6298 -9.46675
RightHand  -1.69273 5.67855 -17.5641
LeftUpLeg  -18.3028 4.38571 7.7299
LeftLeg  31.7967 6.28125 14.1796
LeftFoot  -0.855488 1.18887 -11.0782
LeftToes  7.37594e-011 2.64622e-011 -6.25182e-011
587
root  -5.37069 39.0613 -3.07343 1.8021 -16.877 -2.14822
RightUpLeg  -11.6384 0.537284 7.65101
RightLeg  11.8647 -5.76449 -0.505449
RightFoot  -5.34723 0.14559 -1.95052
RightToes  1.74624e-010 -3.18055e-015 -2.98177e-016
Spine  5.54907 -0.386062 11.8644
Spine1  10.6065 0.416105 -0.45283
HEad  -29.0294 8.92428 4.5147
LeftShoulder1  -3.88251e-019 9.70628e-020 -3.87848e-018
LeftArm  48.9191 21.6819 -94.4251
LeftForeArm  0.956478 -34.1784 7.66776
LeftHand  -0.938892 -10.5579 7.30795
RightShoulder  7.35137 10.9001 33.8395
RightArm  35.7317 -13.6024 55.9773
RightForeArm  -6.81488 26.14 -13.9598
RightHand  -1.88292 6.28539 -18.5192
LeftUpLeg  -18.5182 2.87597 7.51423
LeftLeg  28.1486 7.91046 13.3249
LeftFoot  -1.15925 1.12278 -10.7393
LeftToes  7.37594e-011 2.64622e-011 -6.25182e-011
588
root  -5.38776 39.1587 -3.14416 1.5706 -13.2617 -1.68992
RightUpLeg  -11.0507 0.41117 7.04415
RightLeg  10.7057 -9.06503 -0.910393
RightFoot  -4.57803 0.195923 -2.47914
RightToes  1.74624e-010 -3.18055e-015 -2.98177e-016
Spine  5.2515 -0.186681 11.3624
Spine1  10.6096 0.405146 -0.263373
HEad  -27.98 8.59208 3.72133
LeftShoulder1  -3.88251e-019 9.70628e-020 -3.87848e-018
LeftArm  47.9441 22.259 -93.1226
LeftForeArm  -2.39501 -36.925 8.36338
LeftHand  -0.923157 -10.0863 7.40386
RightShoulder  7.32338 10.8816 33.738
RightArm  34.1282 -11.9904 56.5795
RightForeArm  -6.6225 30.117 -15.9319
RightHand  -1.91098 6.30275 -18.7559
LeftUpLeg  -18.4064 1.52372 7.51656
LeftLeg  23.795 10.1525 12.2808
LeftFoot  -0.783284 1.15027 -10.6528
LeftToes  7.37594e-011 2.64622e-011 -6.25182e-011
589
root  -5.40125 39.2707 -3.16611 1.15875 -9.55316 -1.36653
RightUpLeg  -10.0415 0.300926 6.52668
RightLeg  9.48851 -12.5522 -1.22
RightFoot  -3.82677 0.233924 -2.78093
RightToes  1.74624e-010 -3.18055e-015 -2.98177e-016
Spine  4.88125 -0.0957984 10.905
Spine1  10.7565 0.323582 -0.0880868
HEad  -26.8561 8.10126 1.78664
LeftShoulder1  -3.88251e-019 9.70628e-020 -3.87848e-018
LeftArm  46.1687 23.2844 -91.7222
LeftForeArm  -6.20698 -38.4747 8.68209
LeftHand  -0.995737 -9.49897 8.26324
RightShoulder  7.27855 10.8379 33.6052
RightArm  31.7558 -10.789 57.2253
RightForeArm  -6.3155 32.2917 -17.232
RightHand  -1.98079 6.64302 -18.8925
LeftUpLeg  -17.8558 -0.0792932 7.77532
LeftLeg  19.1244 11.2112 10.3975
LeftFoot  -0.382317 1.1683 -10.4666
LeftToes  7.37594e-011 2.64622e-011 -6.25182e-011
590
root  -5.38431 39.37 -3.14646 0.588045 -5.80602 -1.21653
RightUpLeg  -8.89662 0.100591 6.08931
RightLeg  8.74062 -16.0081 -1.59685
RightFoot  -3.33811 0.213947 -2.42988
RightToes  1.74624e-010 -3.18055e-015 -2.98177e-016
Spine  4.64443 -0.141036 10.8394
Spine1  10.7834 0.227962 -0.173946
HEad  -25.5559 7.27946 -0.631044
LeftShoulder1  -3.88251e-019 9.70628e-020 -3.87848e-018
LeftArm  43.6372 24.7863 -90.2169
LeftForeArm  -9.23409 -38.8547 8.65521
LeftHand  -1.15605 -9.20411 9.71808
RightShoulder  7.32051 10.8207 33.8528
RightArm  28.9693 -10.0926 57.3216
RightForeArm  -5.97597 33.4297 -17.9498
RightHand  -2.13161 7.30506 -19.2754
LeftUpLeg  -17.1769 -2.31833 8.17386
LeftLeg  14.9499 11.7038 8.54653
LeftFoot  -0.210333 1.16239 -10.2701
LeftToes  7.37594e-011 2.64622e-011 -6.25182e-011
591
root  -5.32002 39.4224 -3.09626 0.0924183 -2.03466 -1.07783
RightUpLeg  -8.22278 -0.366917 5.54534
RightLeg  9.0641 -19.2424 -2.37569
RightFoot  -3.38274 0.147399 -1.66255
RightToes  1.74624e-010 -3.18055e-015 -2.98177e-016
Spine  4.31348 -0.208738 10.9447
Spine1  10.7821 0.140049 -0.297448
HEad  -23.7938 6.19918 -2.70794
LeftShoulder1  -3.88251e-019 9.70628e-020 -3.87848e-018
LeftArm  39.9919 26.5744 -88.641
LeftForeArm  -10.668 -38.0614 8.31879
LeftHand  -1.29881 -9.5764 10.6168
RightShoulder  7.52419 10.8686 34.7712
RightArm  26.6981 -9.8378 56.237
RightForeArm  -7.33894 34.5991 -18.6265
RightHand  -2.17656 7.42977 -19.4872
LeftUpLeg  -16.989 -4.18506 8.30634
LeftLeg  12.4352 12.0863 7.47216
LeftFoot  -0.0928287 1.18709 -10.3892
LeftToes  7.37594e-011 2.64622e-011 -6.25182e-011
592
root  -5.2066 39.4211 -3.01728 -0.146107 1.77277 -0.833061
RightUpLeg  -8.21286 -1.19091 4.76115
RightLeg  10.4575 -22.0943 -3.64612
RightFoot  -3.8666 0.0762545 -0.860368
RightToes  1.74624e-010 -3.18055e-015 -2.98177e-016
Spine  3.60124 -0.153892 10.9598
Spine1  11.0279 0.136254 -0.295622
HEad  -21.8135 4.72495 -4.21203
LeftShoulder1  -3.88251e-019 9.70628e-020 -3.87848e-018
LeftArm  35.0814 28.3061 -87.1607
LeftForeArm  -10.732 -36.1282 7.70035
LeftHand  -1.32812 -9.96325 10.5748
RightShoulder  7.76107 10.933 35.8085
RightArm  24.604 -10.223 54.1505
RightForeArm  -9.19097 35.9967 -19.4566
RightHand  -2.07523 6.99717 -19.2261
LeftUpLeg  -17.5669 -3.75092 7.63581
LeftLeg  12.2752 11.9869 7.38054
LeftFoot  0.0143155 1.20466 -10.4551
LeftToes  7.37594e-011 2.64622e-011 -6.25182e-011
